<svg width="16" height="16" viewBox="0 0 16 16" fill="none" xmlns="http://www.w3.org/2000/svg">
<g clip-path="url(#clip0_11347_94680)">
<path d="M9.621 0.666504C9.78909 0.666485 9.95302 0.666919 10.0917 0.678223C10.2441 0.690674 10.4244 0.719824 10.6054 0.812012C10.8561 0.939809 11.0606 1.14331 11.1884 1.39404C11.2806 1.57499 11.3097 1.75532 11.3222 1.90772C11.3247 1.93899 11.3265 1.97178 11.328 2.00537C11.5914 2.01387 11.8171 2.03509 12.0233 2.09033C12.9435 2.33689 13.6624 3.05595 13.9091 3.97607C14.0005 4.31718 14.0002 4.71144 13.9999 5.2417V11.4937C13.9999 12.0303 14.0001 12.4737 13.9706 12.8345C13.94 13.2092 13.8737 13.5539 13.7089 13.8774C13.4532 14.379 13.0455 14.7869 12.5439 15.0425C12.2203 15.2073 11.8756 15.2726 11.5009 15.3032C11.1402 15.3327 10.6975 15.3335 10.161 15.3335H5.83878C5.30236 15.3335 4.85962 15.3327 4.49893 15.3032C4.12421 15.2726 3.77951 15.2073 3.45596 15.0425C2.95435 14.7869 2.54659 14.379 2.29093 13.8774C2.12608 13.5539 2.05983 13.2092 2.02921 12.8345C1.99973 12.4737 1.9999 12.0303 1.99991 11.4937V5.2417C1.99962 4.71145 1.99933 4.31717 2.09073 3.97607C2.33736 3.05594 3.05631 2.3369 3.97647 2.09033C4.18276 2.03507 4.40844 2.01388 4.67179 2.00537C4.67332 1.97179 4.67509 1.93899 4.67764 1.90772C4.6901 1.75532 4.72022 1.57499 4.81241 1.39404C4.94021 1.14351 5.14387 0.939757 5.39444 0.812012C5.57538 0.719821 5.75572 0.690676 5.90811 0.678223C6.04682 0.666907 6.21068 0.666485 6.37882 0.666504H9.621ZM10.3339 7.6665C10.2911 7.66648 10.2481 7.67005 10.206 7.67822C10.0799 7.70262 9.95983 7.76424 9.86221 7.86182L7.33292 10.3901L6.47159 9.52881C6.439 9.49622 6.40414 9.4673 6.3671 9.44287C6.29326 9.3941 6.21177 9.36152 6.12784 9.34522C6.0438 9.32891 5.95702 9.32902 5.87296 9.34522C5.7468 9.36959 5.62593 9.43111 5.52823 9.52881C5.3984 9.65885 5.333 9.82918 5.33292 9.99951C5.33277 10.1702 5.39809 10.3409 5.52823 10.4712L6.86221 11.8042C6.99227 11.9343 7.16246 11.9984 7.33292 11.9985L7.33389 11.9995C7.50434 11.9994 7.67455 11.9342 7.8046 11.8042L10.8046 8.8042C11.0649 8.54384 11.0649 8.12214 10.8046 7.86182C10.6746 7.73182 10.5043 7.66663 10.3339 7.6665ZM6.41983 1.96924C6.01819 1.96926 5.69229 2.29513 5.69229 2.69678C5.69253 3.09822 6.01833 3.4243 6.41983 3.42432H9.72159C10.123 3.42425 10.4489 3.09819 10.4491 2.69678C10.4491 2.29516 10.1232 1.96931 9.72159 1.96924H6.41983Z" fill="black"/>
</g>
<defs>
<clipPath id="clip0_11347_94680">
<rect width="16" height="16" fill="white"/>
</clipPath>
</defs>
</svg>
