<svg width="16" height="16" viewBox="0 0 16 16" fill="none" xmlns="http://www.w3.org/2000/svg">
<g clip-path="url(#clip0_11347_94649)">
<path fill-rule="evenodd" clip-rule="evenodd" d="M6.37868 0.666506C6.38576 0.666506 6.39285 0.666507 6.39994 0.666507L9.62121 0.666506C9.78946 0.666486 9.95332 0.666466 10.0921 0.677804C10.2445 0.690255 10.4243 0.719634 10.6053 0.811832C10.8561 0.939663 11.0601 1.14364 11.188 1.39452C11.2801 1.57547 11.3095 1.75529 11.322 1.90769C11.3245 1.93898 11.3265 1.97154 11.328 2.00515C11.5915 2.01365 11.8171 2.03542 12.0235 2.0907C12.9437 2.33728 13.6625 3.05608 13.9091 3.97632C14.0005 4.31742 14.0003 4.7112 14 5.24146C14 5.27158 13.9999 5.30215 13.9999 5.33317V11.4941C14 12.0307 14 12.4736 13.9705 12.8344C13.9399 13.2091 13.8742 13.5536 13.7093 13.8771C13.4536 14.3789 13.0457 14.7869 12.5439 15.0425C12.2204 15.2074 11.8759 15.2731 11.5012 15.3037C11.1404 15.3332 10.6975 15.3332 10.1608 15.3332H5.83906C5.30242 15.3332 4.85952 15.3332 4.49873 15.3037C4.12399 15.2731 3.77952 15.2074 3.45597 15.0425C2.9542 14.7869 2.54625 14.3789 2.29059 13.8771C2.12573 13.5536 2.06002 13.2091 2.0294 12.8344C1.99993 12.4736 1.99993 12.0307 1.99994 11.494L1.99994 5.33317C1.99994 5.30215 1.99993 5.27158 1.99991 5.24145C1.99962 4.7112 1.99941 4.31742 2.09081 3.97632C2.33739 3.05608 3.05618 2.33728 3.97642 2.0907C4.18277 2.03542 4.40839 2.01365 4.67184 2.00515C4.67337 1.97154 4.67535 1.93898 4.67791 1.90769C4.69036 1.75529 4.71974 1.57547 4.81193 1.39452C4.93976 1.14364 5.14374 0.939663 5.39462 0.811832C5.57557 0.719634 5.75539 0.690255 5.90779 0.677804C6.04656 0.666466 6.21042 0.666486 6.37868 0.666506ZM4.67239 3.33955C4.497 3.34562 4.40159 3.35715 4.32152 3.37861C3.86139 3.5019 3.502 3.86129 3.37871 4.32142C3.339 4.4696 3.33328 4.67027 3.33328 5.33317V11.4665C3.33328 12.0376 3.33379 12.4258 3.35831 12.7258C3.38219 13.0181 3.42547 13.1676 3.4786 13.2718C3.60643 13.5227 3.81041 13.7267 4.06129 13.8545C4.16555 13.9076 4.31502 13.9509 4.6073 13.9748C4.90736 13.9993 5.29556 13.9998 5.86661 13.9998H10.1333C10.7043 13.9998 11.0925 13.9993 11.3926 13.9748C11.6849 13.9509 11.8343 13.9076 11.9386 13.8545C12.1895 13.7267 12.3935 13.5227 12.5213 13.2718C12.5744 13.1676 12.6177 13.0181 12.6416 12.7258C12.6661 12.4258 12.6666 12.0376 12.6666 11.4665V5.33317C12.6666 4.67027 12.6609 4.4696 12.6212 4.32142C12.4979 3.86129 12.1385 3.5019 11.6784 3.37861C11.5983 3.35715 11.5029 3.34562 11.3275 3.33955C11.326 3.36903 11.3242 3.39768 11.322 3.42533C11.3095 3.57772 11.2801 3.75755 11.188 3.93849C11.0601 4.18938 10.8561 4.39335 10.6053 4.52118C10.4243 4.61338 10.2445 4.64276 10.0921 4.65521C9.95332 4.66655 9.78946 4.66653 9.62121 4.66651L6.39994 4.66651C6.39285 4.66651 6.38576 4.66651 6.37868 4.66651C6.21042 4.66653 6.04656 4.66655 5.90779 4.65521C5.75539 4.64276 5.57557 4.61338 5.39462 4.52118C5.14374 4.39335 4.93976 4.18938 4.81193 3.93849C4.71974 3.75755 4.69036 3.57772 4.67791 3.42533C4.67565 3.39767 4.67384 3.36903 4.67239 3.33955ZM9.99994 2.39984C9.99994 2.20216 9.99942 2.09399 9.99307 2.01626C9.99282 2.01317 9.99257 2.01024 9.99231 2.00747C9.98954 2.00722 9.98662 2.00696 9.98352 2.00671C9.9058 2.00036 9.79763 1.99984 9.59994 1.99984H6.39994C6.20226 1.99984 6.09409 2.00036 6.01636 2.00671C6.01327 2.00696 6.01034 2.00722 6.00757 2.00747C6.00732 2.01024 6.00706 2.01317 6.00681 2.01626C6.00046 2.09399 5.99994 2.20216 5.99994 2.39984V2.93317C5.99994 3.13086 6.00046 3.23903 6.00681 3.31675C6.00706 3.31985 6.00732 3.32277 6.00757 3.32554C6.01034 3.3258 6.01327 3.32605 6.01636 3.32631C6.09409 3.33266 6.20226 3.33317 6.39994 3.33317H9.59994C9.79763 3.33317 9.9058 3.33266 9.98352 3.32631C9.98662 3.32605 9.98954 3.3258 9.99231 3.32554C9.99257 3.32277 9.99282 3.31985 9.99307 3.31675C9.99942 3.23903 9.99994 3.13086 9.99994 2.93317V2.39984ZM10.8047 7.86177C11.065 8.12212 11.065 8.54423 10.8047 8.80458L7.80468 11.8046C7.54433 12.0649 7.12222 12.0649 6.86187 11.8046L5.52854 10.4712C5.26819 10.2109 5.26819 9.78878 5.52854 9.52844C5.78889 9.26809 6.211 9.26809 6.47135 9.52844L7.33328 10.3904L9.86187 7.86177C10.1222 7.60142 10.5443 7.60142 10.8047 7.86177Z" fill="black"/>
</g>
<defs>
<clipPath id="clip0_11347_94649">
<rect width="16" height="16" fill="white"/>
</clipPath>
</defs>
</svg>
