<svg width="16" height="16" viewBox="0 0 16 16" fill="none" xmlns="http://www.w3.org/2000/svg">
<g clip-path="url(#clip0_11347_94705)">
<path d="M7.33073 1.4866C7.711 1.14444 8.289 1.14444 8.66927 1.4866L14.6693 6.88699C14.8797 7.07652 14.9999 7.34663 15 7.62983V13.333C15 14.2534 14.2538 14.9996 13.3333 14.9996H10.6667C10.1144 14.9996 9.66667 14.5519 9.66667 13.9996V11.333C9.66644 10.4127 8.92033 9.66629 8 9.66629C7.07967 9.66629 6.33356 10.4127 6.33333 11.333V13.9996C6.33333 14.5519 5.88562 14.9996 5.33333 14.9996H2.66667C1.74619 14.9996 1 14.2534 1 13.333V7.62983C1.00013 7.34663 1.12029 7.07652 1.33073 6.88699L7.33073 1.4866Z" fill="black"/>
</g>
<defs>
<clipPath id="clip0_11347_94705">
<rect width="16" height="16" fill="white"/>
</clipPath>
</defs>
</svg>
