<svg width="16" height="16" viewBox="0 0 16 16" fill="none" xmlns="http://www.w3.org/2000/svg">
<g clip-path="url(#clip0_11347_94702)">
<path fill-rule="evenodd" clip-rule="evenodd" d="M7.65155 0.891067C7.87975 0.82928 8.12027 0.82928 8.34847 0.891067C8.61339 0.962794 8.83642 1.1379 9.01443 1.27765C9.03142 1.291 9.048 1.30402 9.06418 1.31659L13.5857 4.83335C13.6031 4.84688 13.6204 4.86029 13.6375 4.87358C13.8886 5.06844 14.1098 5.2401 14.2747 5.46297C14.4193 5.65856 14.5271 5.8789 14.5927 6.11316C14.6674 6.38011 14.6671 6.66012 14.6667 6.97794C14.6667 6.99963 14.6667 7.02149 14.6667 7.04353V11.8925C14.6667 12.244 14.6667 12.5471 14.6463 12.7968C14.6248 13.0604 14.5772 13.3225 14.4487 13.5748C14.2569 13.9511 13.951 14.2571 13.5747 14.4488C13.3224 14.5774 13.0603 14.6249 12.7967 14.6464C12.547 14.6668 12.2438 14.6668 11.8924 14.6668H10.5333C10.5283 14.6668 10.5231 14.6668 10.5179 14.6668C10.4385 14.6669 10.3437 14.6669 10.2601 14.6601C10.1633 14.6522 10.0247 14.6319 9.87935 14.5578C9.69119 14.462 9.53821 14.309 9.44234 14.1208C9.36831 13.9755 9.34801 13.8369 9.3401 13.74C9.33327 13.6565 9.33331 13.5616 9.33334 13.4822L9.33335 9.06682C9.33335 8.86913 9.33283 8.76096 9.32648 8.68324C9.32622 8.68015 9.32597 8.67722 9.32571 8.67445C9.32295 8.6742 9.32002 8.67394 9.31692 8.67369C9.2392 8.66734 9.13103 8.66682 8.93334 8.66682H7.06668C6.86899 8.66682 6.76082 8.66734 6.6831 8.67369C6.68001 8.67394 6.67708 8.6742 6.67431 8.67445C6.67406 8.67722 6.6738 8.68015 6.67355 8.68324C6.6672 8.76096 6.66668 8.86913 6.66668 9.06682L6.66668 13.4822C6.66671 13.5617 6.66675 13.6565 6.65992 13.74C6.65201 13.8369 6.63172 13.9755 6.55769 14.1208C6.46181 14.309 6.30883 14.462 6.12067 14.5578C5.97537 14.6319 5.83671 14.6522 5.7399 14.6601C5.65636 14.6669 5.56152 14.6669 5.48211 14.6668C5.4769 14.6668 5.47175 14.6668 5.46668 14.6668H4.10763C3.75621 14.6668 3.45304 14.6668 3.20333 14.6464C2.93976 14.6249 2.67762 14.5774 2.42536 14.4488C2.04904 14.2571 1.74308 13.9511 1.55133 13.5748C1.4228 13.3225 1.37526 13.0604 1.35372 12.7968C1.33332 12.5471 1.33333 12.2439 1.33334 11.8925L1.33334 7.04353C1.33334 7.02149 1.33332 6.99963 1.3333 6.97794C1.33295 6.66011 1.33265 6.38011 1.40737 6.11316C1.47295 5.8789 1.58071 5.65856 1.72537 5.46297C1.89021 5.2401 2.11142 5.06843 2.36251 4.87357C2.37964 4.86028 2.39691 4.84688 2.41431 4.83334L6.93585 1.31659C6.95202 1.30402 6.9686 1.291 6.9856 1.27765C7.1636 1.1379 7.38664 0.962794 7.65155 0.891067ZM7.99515 2.18785C7.94504 2.22132 7.87904 2.27215 7.75444 2.36906L3.2329 5.88581C2.90085 6.14407 2.83901 6.19951 2.79735 6.25583C2.74913 6.32103 2.71321 6.39447 2.69135 6.47256C2.67247 6.54003 2.66668 6.62287 2.66668 7.04353V11.8668C2.66668 12.2512 2.6672 12.4994 2.68263 12.6883C2.69743 12.8694 2.72255 12.9365 2.73934 12.9695C2.80326 13.0949 2.90524 13.1969 3.03068 13.2608C3.06365 13.2776 3.13079 13.3027 3.3119 13.3175C3.50079 13.333 3.74898 13.3335 4.13335 13.3335H5.33335L5.33334 9.04555C5.33332 8.8773 5.3333 8.71344 5.34464 8.57467C5.35709 8.42227 5.38647 8.24245 5.47867 8.0615C5.6065 7.81062 5.81047 7.60664 6.06136 7.47881C6.24231 7.38661 6.42213 7.35723 6.57453 7.34478C6.7133 7.33344 6.87717 7.33346 7.04542 7.33348H8.9546C9.12286 7.33346 9.28672 7.33344 9.4255 7.34478C9.57789 7.35723 9.75772 7.38661 9.93867 7.47881C10.1896 7.60664 10.3935 7.81062 10.5214 8.0615C10.6136 8.24245 10.6429 8.42227 10.6554 8.57467C10.6667 8.71344 10.6667 8.87731 10.6667 9.04556L10.6667 13.3335H11.8667C12.251 13.3335 12.4992 13.333 12.6881 13.3175C12.8692 13.3027 12.9364 13.2776 12.9693 13.2608C13.0948 13.1969 13.1968 13.0949 13.2607 12.9695C13.2775 12.9365 13.3026 12.8694 13.3174 12.6883C13.3328 12.4994 13.3333 12.2512 13.3333 11.8668V7.04353C13.3333 6.62287 13.3276 6.54003 13.3087 6.47256C13.2868 6.39447 13.2509 6.32103 13.2027 6.25583C13.161 6.19951 13.0992 6.14408 12.7671 5.88581L8.24559 2.36906C8.12098 2.27215 8.05498 2.22132 8.00488 2.18785C8.00318 2.18671 8.00156 2.18564 8.00001 2.18462C7.99847 2.18564 7.99684 2.18671 7.99515 2.18785Z" fill="black"/>
</g>
<defs>
<clipPath id="clip0_11347_94702">
<rect width="16" height="16" fill="white"/>
</clipPath>
</defs>
</svg>
