<svg width="16" height="16" viewBox="0 0 16 16" fill="none" xmlns="http://www.w3.org/2000/svg">
<g clip-path="url(#clip0_11347_94648)">
<path d="M7.33351 8.50696V15.1717C7.28566 15.1466 7.24008 15.1223 7.19809 15.0988C7.18456 15.0912 7.17125 15.0838 7.15838 15.0766L2.22479 12.3357C2.21123 12.3282 2.19743 12.3202 2.18312 12.3123C2.02903 12.2274 1.83516 12.1209 1.68638 11.9594C1.55776 11.8199 1.46012 11.6546 1.40057 11.4744C1.33172 11.266 1.33287 11.0448 1.33351 10.8689V5.36112C1.33331 5.30633 1.33359 5.24717 1.33546 5.18534L7.33351 8.50696Z" fill="black"/>
<path d="M14.661 5.12284C14.6657 5.20734 14.6671 5.28809 14.6668 5.36112V10.8689C14.6675 11.0448 14.668 11.266 14.5991 11.4744C14.5396 11.6545 14.4425 11.8199 14.314 11.9594C14.1652 12.1209 13.9713 12.2274 13.8172 12.3123C13.8028 12.3202 13.7886 12.3282 13.7749 12.3357L8.84197 15.0766C8.8291 15.0838 8.8158 15.0912 8.80226 15.0988C8.76029 15.1223 8.71468 15.1466 8.66684 15.1717V8.50696L14.661 5.12284Z" fill="black"/>
<path d="M7.7313 0.904745C7.90841 0.868319 8.09129 0.868362 8.26841 0.904745C8.47326 0.946875 8.6567 1.04978 8.80226 1.13131C8.81577 1.13887 8.82912 1.1463 8.84197 1.15344L13.7749 3.89433C13.7885 3.90188 13.8029 3.90921 13.8172 3.91711C13.8594 3.94031 13.9044 3.9655 13.9507 3.99264L8.00018 7.35201L1.99432 4.02649C2.05996 3.98592 2.12433 3.9495 2.18312 3.91711C2.19734 3.90928 2.21131 3.90181 2.22479 3.89433L7.15838 1.15344C7.17127 1.14628 7.18454 1.1389 7.19809 1.13131C7.34362 1.0498 7.52651 0.946896 7.7313 0.904745Z" fill="black"/>
</g>
<defs>
<clipPath id="clip0_11347_94648">
<rect width="16" height="16" fill="white"/>
</clipPath>
</defs>
</svg>
