<svg width="16" height="16" viewBox="0 0 16 16" fill="none" xmlns="http://www.w3.org/2000/svg">
<g clip-path="url(#clip0_11347_94646)">
<path fill-rule="evenodd" clip-rule="evenodd" d="M5.87591 2.00004C5.90935 2.00007 5.94322 2.00009 5.97756 2.00009H10.0221C10.0565 2.00009 10.0904 2.00007 10.1238 2.00004C10.7423 1.99963 11.2085 1.99931 11.6333 2.14584C12.007 2.27472 12.3473 2.48506 12.6297 2.76164C12.9507 3.07606 13.159 3.49324 13.4352 4.04658C13.4501 4.0765 13.4652 4.10681 13.4806 4.13753L14.925 7.02628C14.9308 7.03794 14.9366 7.04944 14.9422 7.0608C15.0517 7.27951 15.1344 7.44493 15.194 7.62186C15.2466 7.77822 15.2846 7.93913 15.3074 8.1025C15.3333 8.28737 15.3333 8.47234 15.3332 8.71688C15.3332 8.72959 15.3332 8.74246 15.3332 8.75551V10.161C15.3332 10.6976 15.3332 11.1405 15.3037 11.5013C15.2731 11.876 15.2074 12.2205 15.0425 12.5441C14.7869 13.0458 14.3789 13.4538 13.8772 13.7094C13.5536 13.8743 13.2091 13.94 12.8344 13.9706C12.4736 14.0001 12.0307 14.0001 11.4941 14.0001H4.50563C3.969 14.0001 3.52609 14.0001 3.1653 13.9706C2.79057 13.94 2.4461 13.8743 2.12254 13.7094C1.62078 13.4538 1.21283 13.0458 0.957167 12.5441C0.792307 12.2205 0.726597 11.876 0.69598 11.5013C0.666502 11.1405 0.666509 10.6976 0.666518 10.161L0.666518 8.75551C0.666518 8.74246 0.666514 8.72959 0.666511 8.71688C0.666442 8.47234 0.666391 8.28737 0.692273 8.1025C0.715145 7.93913 0.753129 7.77822 0.805736 7.62186C0.865263 7.44494 0.948027 7.27952 1.05745 7.06084C1.06314 7.04947 1.0689 7.03795 1.07473 7.02628L1.67102 7.32442L1.67491 7.32637M1.67102 7.32442L1.07473 7.02628L2.51911 4.13753C2.53446 4.10682 2.54959 4.07651 2.56452 4.0466C2.84074 3.49324 3.04897 3.07607 3.37 2.76164C3.65239 2.48506 3.99273 2.27472 4.3664 2.14584C4.7912 1.99931 5.25745 1.99963 5.87591 2.00004M2.41187 7.33342L3.71168 4.73381C4.05435 4.04846 4.16235 3.85191 4.30296 3.7142C4.44415 3.57591 4.61432 3.47074 4.80116 3.4063C4.98721 3.34212 5.21131 3.33342 5.97756 3.33342H10.0221C10.7884 3.33342 11.0125 3.34212 11.1985 3.4063C11.3854 3.47074 11.5555 3.57591 11.6967 3.7142C11.8373 3.85191 11.9453 4.04847 12.288 4.73382L13.5878 7.33342H12.0785C11.3692 7.33342 10.7208 7.73418 10.4036 8.36861C10.3122 8.55133 10.1255 8.66676 9.92116 8.66676H6.07854C5.87425 8.66676 5.6875 8.55133 5.59614 8.36861C5.27892 7.73418 4.63048 7.33342 3.92116 7.33342H2.41187Z" fill="black"/>
</g>
<defs>
<clipPath id="clip0_11347_94646">
<rect width="16" height="16" fill="white"/>
</clipPath>
</defs>
</svg>
