<svg width="16" height="16" viewBox="0 0 16 16" fill="none" xmlns="http://www.w3.org/2000/svg">
<g clip-path="url(#clip0_11347_94647)">
<path fill-rule="evenodd" clip-rule="evenodd" d="M5.87604 2.00004C5.90947 2.00007 5.94334 2.00009 5.97768 2.00009H10.0223C10.0566 2.00009 10.0905 2.00007 10.1239 2.00004C10.7424 1.99963 11.2086 1.99931 11.6334 2.14584C12.0071 2.27472 12.3474 2.48506 12.6298 2.76164C12.9509 3.07606 13.1591 3.49324 13.4353 4.04658C13.4502 4.0765 13.4654 4.10681 13.4807 4.13753L14.9251 7.02628C14.9309 7.03794 14.9367 7.04944 14.9424 7.0608C15.0518 7.27951 15.1346 7.44493 15.1941 7.62186C15.2467 7.77822 15.2847 7.93913 15.3076 8.1025C15.3334 8.28737 15.3334 8.47234 15.3333 8.71688C15.3333 8.72959 15.3333 8.74246 15.3333 8.75551V10.161C15.3333 10.6976 15.3333 11.1405 15.3038 11.5013C15.2732 11.876 15.2075 12.2205 15.0427 12.5441C14.787 13.0458 14.379 13.4538 13.8773 13.7094C13.5537 13.8743 13.2093 13.94 12.8345 13.9706C12.4737 14.0001 12.0308 14.0001 11.4942 14.0001H4.50576C3.96912 14.0001 3.52622 14.0001 3.16542 13.9706C2.79069 13.94 2.44622 13.8743 2.12267 13.7094C1.6209 13.4538 1.21295 13.0458 0.957289 12.5441C0.792429 12.2205 0.726719 11.876 0.696102 11.5013C0.666624 11.1405 0.666631 10.6976 0.66664 10.161L0.66664 8.75551C0.66664 8.74246 0.666636 8.72959 0.666633 8.71688C0.666565 8.47234 0.666513 8.28737 0.692395 8.1025C0.715267 7.93912 0.753251 7.77822 0.805858 7.62186C0.865385 7.44494 0.948149 7.27952 1.05757 7.06084C1.06326 7.04947 1.06902 7.03795 1.07485 7.02628L1.67114 7.32442L1.67504 7.32637M1.67114 7.32442L1.07485 7.02628L2.51923 4.13753C2.53459 4.10682 2.54972 4.07651 2.56465 4.0466C2.84086 3.49324 3.04909 3.07607 3.37012 2.76164C3.65251 2.48506 3.99285 2.27472 4.36652 2.14584C4.79132 1.99931 5.25757 1.99963 5.87604 2.00004M2.412 7.33342L3.7118 4.73381C4.05447 4.04846 4.16248 3.85191 4.30308 3.7142C4.44428 3.57591 4.61445 3.47074 4.80128 3.4063C4.98734 3.34212 5.21144 3.33342 5.97768 3.33342H10.0223C10.7885 3.33342 11.0126 3.34212 11.1987 3.4063C11.3855 3.47074 11.5557 3.57591 11.6969 3.7142C11.8375 3.85191 11.9455 4.04847 12.2881 4.73382L13.588 7.33342H12.0787C11.3693 7.33342 10.7209 7.73418 10.4037 8.36861C10.3123 8.55133 10.1256 8.66675 9.92128 8.66675H6.07866C5.87437 8.66675 5.68762 8.55133 5.59626 8.36861C5.27904 7.73418 4.6306 7.33342 3.92128 7.33342H2.412ZM2.00003 8.66675C1.99999 8.69409 1.99997 8.72359 1.99997 8.75551V10.1334C1.99997 10.7045 2.00049 11.0927 2.02501 11.3927C2.04889 11.685 2.09217 11.8345 2.1453 11.9387C2.27313 12.1896 2.4771 12.3936 2.72799 12.5214C2.83225 12.5746 2.98172 12.6178 3.274 12.6417C3.57406 12.6662 3.96225 12.6668 4.53331 12.6668H11.4666C12.0377 12.6668 12.4259 12.6662 12.7259 12.6417C13.0182 12.6178 13.1677 12.5746 13.272 12.5214C13.5228 12.3936 13.7268 12.1896 13.8546 11.9387C13.9078 11.8345 13.9511 11.685 13.9749 11.3927C13.9995 11.0927 14 10.7045 14 10.1334V8.75551C14 8.72359 14 8.69409 13.9999 8.66675H12.0787C11.8744 8.66675 11.6876 8.78218 11.5963 8.9649C11.279 9.59933 10.6306 10.0001 9.92128 10.0001H6.07866C5.36934 10.0001 4.72091 9.59933 4.40369 8.9649C4.31233 8.78218 4.12557 8.66675 3.92128 8.66675H2.00003Z" fill="black"/>
</g>
<defs>
<clipPath id="clip0_11347_94647">
<rect width="16" height="16" fill="white"/>
</clipPath>
</defs>
</svg>
