<svg width="16" height="16" viewBox="0 0 16 16" fill="none" xmlns="http://www.w3.org/2000/svg">
<g clip-path="url(#clip0_11347_94644)">
<path d="M11.4939 4.00056C12.0303 4.00055 12.4741 4.00039 12.8347 4.02985C13.209 4.06048 13.5535 4.12602 13.8767 4.2906C14.3784 4.54627 14.7871 4.95493 15.0427 5.45661C15.2074 5.78004 15.2729 6.12503 15.3035 6.49958C15.3329 6.86022 15.3328 7.30314 15.3328 7.83942V10.8277C15.3328 11.3642 15.3329 11.8078 15.3035 12.1685C15.2729 12.5428 15.2072 12.8873 15.0427 13.2105C14.7871 13.7122 14.3783 14.1209 13.8767 14.3765C13.5535 14.5412 13.209 14.6066 12.8347 14.6373C12.4741 14.6667 12.0303 14.6676 11.4939 14.6675H4.50562C3.96942 14.6676 3.5264 14.6667 3.16577 14.6373C2.96696 14.621 2.7757 14.594 2.59253 14.5484C2.57006 14.5428 2.5474 14.537 2.52515 14.5308C2.5154 14.5281 2.50555 14.5258 2.49585 14.523L2.3689 14.483C2.28547 14.4532 2.20348 14.4176 2.1228 14.3765C1.62107 14.1209 1.21245 13.7122 0.956788 13.2105C0.792191 12.8872 0.726658 12.5429 0.696045 12.1685C0.666585 11.8078 0.66674 11.3642 0.666749 10.8277V4.02399H8.95093C9.01139 4.02399 9.06956 4.01447 9.12573 4.00056H11.4939ZM7.13745 7.19587C6.87717 6.93572 6.45539 6.93579 6.19507 7.19587L4.52808 8.86286C4.26814 9.1232 4.26798 9.54501 4.52808 9.80524L6.19507 11.4722C6.45533 11.7321 6.87721 11.7321 7.13745 11.4722C7.39755 11.2119 7.39753 10.7892 7.13745 10.5289L5.94214 9.33356L7.13745 8.13825C7.39751 7.87796 7.39751 7.45616 7.13745 7.19587ZM9.80444 7.19587C9.54415 6.93562 9.12144 6.93571 8.86108 7.19587C8.60125 7.4561 8.60131 7.87799 8.86108 8.13825L10.0564 9.33356L8.86108 10.5289C8.60098 10.7892 8.60093 11.2119 8.86108 11.4722C9.12138 11.7323 9.54415 11.7323 9.80444 11.4722L11.4714 9.80524C11.7313 9.54506 11.7311 9.12314 11.4714 8.86286L9.80444 7.19587ZM6.09741 1.33356C6.49275 1.33304 6.84117 1.33273 7.16089 1.44294C7.44089 1.53957 7.6963 1.69764 7.90796 1.90485C8.09383 2.08695 8.22938 2.31302 8.36206 2.56892H0.822999C0.841646 2.52134 0.860621 2.47328 0.884522 2.42634C1.07628 2.05011 1.38229 1.74305 1.75855 1.55134C2.01047 1.42311 2.27269 1.37561 2.53589 1.35407C2.78554 1.3337 3.0899 1.33355 3.44116 1.33356H6.09741Z" fill="black"/>
</g>
<defs>
<clipPath id="clip0_11347_94644">
<rect width="16" height="16" fill="white"/>
</clipPath>
</defs>
</svg>
