<svg width="16" height="16" viewBox="0 0 16 16" fill="none" xmlns="http://www.w3.org/2000/svg">
  <g clip-path="url(#clip0_11347_94645)">
    <path fill-rule="evenodd" clip-rule="evenodd" d="M6.72663 2.70292C6.64621 2.67518 6.54176 2.66648 6.01482 2.66648H3.46663C3.08226 2.66648 2.83408 2.667 2.64518 2.68244C2.46408 2.69723 2.39693 2.72235 2.36397 2.73915C2.23853 2.80306 2.13654 2.90505 2.07262 3.03049C2.05583 3.06345 2.03071 3.1306 2.01591 3.31171C2.00234 3.47781 2.0003 3.68975 2.00001 3.99982H7.58794L7.32665 3.47724C7.091 3.00594 7.0365 2.9164 6.97573 2.85687C6.90513 2.78773 6.82005 2.73514 6.72663 2.70292ZM9.07865 3.99982L8.51922 2.88095C8.50676 2.85603 8.49443 2.8313 8.48221 2.80677C8.30571 2.45261 8.15049 2.14115 7.90869 1.90431C7.6969 1.69688 7.44164 1.53913 7.16139 1.44246C6.84142 1.3321 6.49344 1.33256 6.09773 1.33308C6.07033 1.33311 6.04269 1.33315 6.01482 1.33315L3.44093 1.33315C3.0895 1.33314 2.78632 1.33313 2.53661 1.35353C2.27304 1.37506 2.0109 1.42261 1.75865 1.55114C1.38232 1.74289 1.07636 2.04885 0.884614 2.42517C0.756085 2.67742 0.708541 2.93957 0.687007 3.20313C0.666604 3.45285 0.666615 3.75602 0.666627 4.10746L0.666627 10.8274C0.666618 11.364 0.666611 11.8069 0.69609 12.1677C0.726706 12.5424 0.792416 12.8869 0.957276 13.2105C1.21294 13.7122 1.62089 14.1202 2.12265 14.3758C2.44621 14.5407 2.79068 14.6064 3.16541 14.637C3.5262 14.6665 3.9691 14.6665 4.50574 14.6665H11.4942C12.0308 14.6665 12.4737 14.6665 12.8345 14.637C13.2092 14.6064 13.5537 14.5407 13.8773 14.3758C14.379 14.1202 14.787 13.7122 15.0426 13.2105C15.2075 12.8869 15.2732 12.5424 15.3038 12.1677C15.3333 11.8069 15.3333 11.364 15.3333 10.8274V7.83893C15.3333 7.3023 15.3333 6.85939 15.3038 6.4986C15.2732 6.12387 15.2075 5.7794 15.0426 5.45584C14.787 4.95408 14.379 4.54613 13.8773 4.29047C13.5537 4.12561 13.2092 4.0599 12.8345 4.02928C12.4737 3.9998 12.0308 3.99981 11.4942 3.99982L9.07865 3.99982ZM8.65321 5.33315C8.66248 5.33335 8.67177 5.33335 8.68107 5.33315H11.4666C12.0377 5.33315 12.4259 5.33367 12.7259 5.35819C13.0182 5.38207 13.1677 5.42535 13.2719 5.47848C13.5228 5.60631 13.7268 5.81028 13.8546 6.06116C13.9078 6.16543 13.951 6.3149 13.9749 6.60718C13.9994 6.90724 14 7.29543 14 7.86648V10.7998C14 11.3709 13.9994 11.7591 13.9749 12.0591C13.951 12.3514 13.9078 12.5009 13.8546 12.6051C13.7268 12.856 13.5228 13.06 13.2719 13.1878C13.1677 13.241 13.0182 13.2842 12.7259 13.3081C12.4259 13.3326 12.0377 13.3332 11.4666 13.3332H4.53329C3.96224 13.3332 3.57405 13.3326 3.27399 13.3081C2.98171 13.2842 2.83224 13.241 2.72797 13.1878C2.47709 13.06 2.27312 12.856 2.14529 12.6051C2.09216 12.5009 2.04887 12.3514 2.02499 12.0591C2.00048 11.7591 1.99996 11.3709 1.99996 10.7998V5.33315H8.65321ZM7.13803 7.19508C7.39838 7.45543 7.39838 7.87754 7.13803 8.13789L5.94277 9.33315L7.13803 10.5284C7.39838 10.7888 7.39838 11.2109 7.13803 11.4712C6.87768 11.7316 6.45557 11.7316 6.19522 11.4712L4.52856 9.80456C4.26821 9.54421 4.26821 9.1221 4.52856 8.86175L6.19522 7.19508C6.45557 6.93473 6.87768 6.93473 7.13803 7.19508ZM8.86189 7.19508C9.12224 6.93473 9.54435 6.93473 9.8047 7.19508L11.4714 8.86175C11.7317 9.1221 11.7317 9.54421 11.4714 9.80456L9.8047 11.4712C9.54435 11.7316 9.12224 11.7316 8.86189 11.4712C8.60154 11.2109 8.60154 10.7888 8.86189 10.5284L10.0572 9.33315L8.86189 8.13789C8.60154 7.87754 8.60154 7.45543 8.86189 7.19508Z" fill="black"/>
  </g>
  <defs>
    <clipPath id="clip0_11347_94645">
      <rect width="16" height="16" fill="white"/>
    </clipPath>
  </defs>
</svg>
